<?xml version="1.0" encoding="UTF-8" standalone="no"?>
<svg
   xmlns:dc="http://purl.org/dc/elements/1.1/"
   xmlns:cc="http://creativecommons.org/ns#"
   xmlns:rdf="http://www.w3.org/1999/02/22-rdf-syntax-ns#"
   xmlns:svg="http://www.w3.org/2000/svg"
   xmlns="http://www.w3.org/2000/svg"
   xmlns:sodipodi="http://sodipodi.sourceforge.net/DTD/sodipodi-0.dtd"
   xmlns:inkscape="http://www.inkscape.org/namespaces/inkscape"
   inkscape:version="1.0 (4035a4fb49, 2020-05-01)"
   sodipodi:docname="g+ icon.svg"
   viewBox="0 0 25.333332 25.333332"
   height="25.333332"
   width="25.333332"
   id="svg919"
   version="1.1">
  <metadata
     id="metadata925">
    <rdf:RDF>
      <cc:Work
         rdf:about="">
        <dc:format>image/svg+xml</dc:format>
        <dc:type
           rdf:resource="http://purl.org/dc/dcmitype/StillImage" />
        <dc:title></dc:title>
      </cc:Work>
    </rdf:RDF>
  </metadata>
  <defs
     id="defs923" />
  <sodipodi:namedview
     inkscape:current-layer="g927"
     inkscape:window-maximized="1"
     inkscape:window-y="-8"
     inkscape:window-x="-8"
     inkscape:cy="17.053488"
     inkscape:cx="23.894746"
     inkscape:zoom="11.067373"
     showgrid="true"
     id="namedview921"
     inkscape:window-height="1017"
     inkscape:window-width="1920"
     inkscape:pageshadow="2"
     inkscape:pageopacity="0"
     guidetolerance="10"
     gridtolerance="10"
     objecttolerance="10"
     borderopacity="1"
     bordercolor="#666666"
     pagecolor="#ffffff">
    <inkscape:grid
       id="grid1498"
       type="xygrid" />
  </sodipodi:namedview>
  <g
     id="g927"
     inkscape:label="Image"
     inkscape:groupmode="layer">
    <path
       sodipodi:nodetypes="cccccssc"
       id="path931"
       d="M 4.7918337,6.5168938 C 4.6825951,5.7565106 4.5874043,4.7106067 4.7279425,3.9133308 5.0168733,2.1637938 5.6779429,2.0459993 6.2990313,1.4207746 c 1.4546981,0.062439 2.8549065,0.3991288 4.0193837,1.933509 1.038982,1.9127143 1.29176,4.3458815 0.255565,6.0856287 C 10.264926,9.9329345 9.5577844,10.351838 8.9767017,10.382306 8.0202407,10.432456 6.8199252,9.8836696 6.1654927,9.1843479 5.4400414,8.409136 5.0936502,7.4684118 4.7918337,6.5168938"
       style="fill:none;stroke:none;stroke-width:0.1;stroke-linecap:butt;stroke-linejoin:miter;stroke-miterlimit:4;stroke-dasharray:none;stroke-opacity:1" />
    <path
       sodipodi:nodetypes="sssscsscssssccsssssssscssssccssss"
       id="path1494"
       d="M 1.3553352,5.9408861 C 1.4111729,5.2224066 1.487369,4.4838186 1.7619358,3.8175276 2.1112351,2.9698835 2.6824207,2.2154539 3.2979824,1.5360466 3.8294238,0.94948449 4.8560862,0.04659485 5.6472302,0.02258892 9.3947935,-0.09112455 16.354378,0.03388338 16.354378,0.03388338 c 0,0 0.07606,0.8844136 -0.146828,1.19721282 -0.272331,0.3821901 -0.625349,0.3536586 -1.084268,0.4517783 -0.586775,0.1254565 -1.795819,0.1242391 -1.795819,0.1242391 0,0 0.905316,1.447437 1.129446,2.2588921 0.159825,0.578642 0.179485,1.2733398 0.135534,1.7958192 -0.079,0.9390922 -0.384962,1.5456734 -0.858379,2.3605422 -0.375712,0.6466937 -0.897651,1.198258 -1.389219,1.7619358 -0.467251,0.5357931 -0.901264,0.8428071 -1.479574,1.5360461 0.03159,0.862656 0.06777,1.377925 0.06777,1.377925 0,0 1.317878,0.658211 1.87488,1.129446 0.953957,0.807068 1.815199,1.763839 2.439603,2.846204 0.295115,0.511564 0.523041,1.084503 0.587312,1.67158 0.08914,0.814206 0.01806,1.682167 -0.293656,2.439603 -0.359401,0.873299 -0.888477,1.752615 -1.581225,2.394425 -0.940609,0.871449 -2.083769,1.991645 -3.365748,1.965237 C 8.0843035,25.293067 6.4299217,25.504064 3.8175275,25.186647 3.2492561,25.117599 2.258892,24.576745 2.258892,24.576745 1.1623694,24.028484 0.40983682,23.085504 0,21.956431 -0.19496665,20.697842 -0.13708887,18.980453 0.13553352,17.845247 0.26608424,17.301631 0.49166526,17.067517 0.79061222,16.648034 1.3566445,15.853777 2.0015684,15.420968 2.8913818,15.021632 3.7977471,14.614868 4.8020437,14.457353 5.7827637,14.298787 6.2747548,14.21924 7.2736324,14.185842 7.2736324,14.185842 l -0.022589,-2.055591 c 0,0 -1.3485338,-0.0125 -2.0104139,-0.158123 C 4.4506553,11.798327 3.6163701,11.532118 3.0269153,10.978215 2.1899483,10.191727 1.7173907,9.0388782 1.423102,7.9287111 1.2532199,7.2878522 1.3039646,6.6018862 1.3553352,5.9408861 Z"
       style="fill:none;stroke:none;stroke-width:0.1;stroke-linecap:butt;stroke-linejoin:miter;stroke-miterlimit:4;stroke-dasharray:none;stroke-opacity:1" />
    <path
       sodipodi:nodetypes="sssssssssss"
       id="path1496"
       d="M 3.2265013,20.477103 C 3.0071531,19.882101 3.0199845,19.14214 3.3063653,18.576342 3.7100392,17.77881 4.6165769,17.12586 5.4147722,16.723499 6.290053,16.282281 7.2638083,16.085068 8.241954,16.148479 c 0.9698714,0.06287 1.940217,0.425761 2.731346,0.990313 0.691054,0.493138 1.205834,1.024027 1.661168,1.900761 0.32669,0.629033 0.27578,1.616047 0.07986,2.172297 -0.262659,0.745744 -1.393195,1.439688 -1.549358,1.533387 -0.559048,0.33543 -1.9129884,0.897716 -3.1626106,0.798639 C 7.1096746,23.473099 5.7058208,23.082869 4.9835071,22.553564 4.2450698,22.012444 3.5431612,21.336072 3.2265013,20.477103 Z"
       style="fill:none;stroke:none;stroke-width:0.1;stroke-linecap:butt;stroke-linejoin:miter;stroke-miterlimit:4;stroke-dasharray:none;stroke-opacity:1" />
    <path
       id="path1500"
       d="m 16,4 v 2 h 4 v 4 h 2 V 6 h 4 V 4 H 22 V 0 h -2 v 4 z"
       style="fill:#7bcbc2;fill-opacity:0.992157;stroke:none;stroke-width:0.2;stroke-linecap:butt;stroke-linejoin:miter;stroke-miterlimit:4;stroke-dasharray:none;stroke-opacity:1" />
    <path
       id="path1570"
       d="M 5.1421906,25.242991 C 4.4401084,25.192547 3.6595125,25.084198 3.4028437,25.001565 3.2413329,24.949568 2.8428457,24.775459 2.5173167,24.614657 1.4647922,24.094739 0.79638762,23.440344 0.30723814,22.4509 0.07124176,21.973531 0.05899934,21.930799 0.00929663,21.410941 -0.06427636,20.641416 -0.01771568,19.121223 0.10086854,18.421145 0.24626109,17.562799 0.34691125,17.3483 0.99181698,16.522404 1.8295009,15.449629 3.1096184,14.833244 5.2777241,14.458713 c 0.5348727,-0.0924 1.621472,-0.205442 1.9999227,-0.208063 0.044998,-3.16e-4 0.054682,-0.235235 0.045178,-1.095959 L 7.3107269,12.059128 6.5878815,12.02937 C 5.5261254,11.985661 4.8043001,11.843527 4.0731234,11.534192 3.03943,11.096873 2.3228537,10.253093 1.8033924,8.8615468 1.5695037,8.2349997 1.4289257,7.6786893 1.3917688,7.2326254 1.3303587,6.4954048 1.5215454,4.752956 1.7325818,4.126504 2.1378505,2.9234822 3.3916568,1.33118 4.53929,0.56205551 4.7543469,0.41792819 5.0491324,0.25235022 5.1943687,0.19410447 L 5.4584355,0.0882031 9.7729193,0.07235709 C 12.145885,0.06364179 14.582676,0.07080727 15.18801,0.0882804 l 1.100607,0.03176932 -0.01752,0.43614284 C 16.250549,1.0678307 16.153949,1.2758703 15.869557,1.4209559 15.630343,1.5429938 14.722091,1.6826003 13.897667,1.724053 l -0.686692,0.034528 0.227643,0.3840116 c 0.373907,0.6307452 0.879699,1.6908842 0.963465,2.0194224 0.09977,0.3913133 0.147274,1.1240925 0.107834,1.6634553 -0.05306,0.7255973 -0.266311,1.3473212 -0.748779,2.1830186 -0.442826,0.7670299 -1.005537,1.4498288 -2.189362,2.6565901 l -0.759766,0.774487 2.71e-4,0.377548 c 1.35e-4,0.207652 0.01335,0.545511 0.02933,0.750798 l 0.02905,0.37325 0.546692,0.299904 c 0.768592,0.421635 1.208875,0.723442 1.661514,1.138945 1.028332,0.94396 1.82719,1.953451 2.27478,2.874569 0.298573,0.614447 0.38786,0.980148 0.415575,1.702129 0.03826,0.996618 -0.08956,1.598879 -0.53046,2.49941 -0.430243,0.878769 -0.88753,1.469043 -1.725737,2.227616 -0.932271,0.8437 -1.468046,1.209787 -2.147422,1.467305 -0.256665,0.09729 -0.29606,0.09859 -3.1287309,0.103357 -1.5778361,0.0027 -2.970443,-0.0025 -3.0946821,-0.0114 z m 4.0781992,-1.713502 c 1.4404292,-0.25525 3.0183552,-1.211587 3.4701512,-2.103163 0.23593,-0.465587 0.315807,-1.33507 0.176809,-1.924612 -0.216651,-0.918896 -1.098771,-1.982852 -2.194621,-2.64701 -2.0196799,-1.224063 -4.5352101,-1.001816 -6.4857407,0.573015 -1.5369703,1.240927 -1.5843508,2.954275 -0.122557,4.431831 0.7059131,0.713526 1.3209891,1.094351 2.2523831,1.394568 1.1296326,0.364115 1.9589365,0.442765 2.9035754,0.275371 z M 9.4212907,10.365626 C 10.035365,10.175958 10.522701,9.7439685 10.813807,9.1312576 11.424048,7.8468385 11.463952,6.2446809 10.926543,4.6047845 10.5747,3.5311416 10.207142,2.959072 9.5165757,2.4103043 8.7304067,1.7855647 7.8894217,1.4762511 6.723415,1.3829825 L 6.2716366,1.3468448 5.8164491,1.7412572 C 5.1284963,2.3373573 4.9040717,2.7210357 4.7065623,3.638731 4.6238047,4.0232528 4.6055908,4.2503709 4.6055406,4.8984404 4.6054503,5.839404 4.6752672,6.4033193 4.8599763,6.9540322 5.3036968,8.2769939 5.9095276,9.1958253 6.684286,9.720865 c 0.9129922,0.618718 1.9956141,0.873753 2.7370047,0.644761 z"
       style="fill:#7bcbc2;fill-opacity:0.992157;stroke:none;stroke-width:0.009;stroke-miterlimit:4;stroke-dasharray:none;stroke-opacity:0.66" />
  </g>
</svg>
