<?xml version="1.0" encoding="UTF-8" standalone="no"?>
<svg
   xmlns:dc="http://purl.org/dc/elements/1.1/"
   xmlns:cc="http://creativecommons.org/ns#"
   xmlns:rdf="http://www.w3.org/1999/02/22-rdf-syntax-ns#"
   xmlns:svg="http://www.w3.org/2000/svg"
   xmlns="http://www.w3.org/2000/svg"
   version="1.1"
   id="svg1572"
   width="32"
   height="29.333332"
   viewBox="0 0 32 29.333332">
  <metadata
     id="metadata1578">
    <rdf:RDF>
      <cc:Work
         rdf:about="">
        <dc:format>image/svg+xml</dc:format>
        <dc:type
           rdf:resource="http://purl.org/dc/dcmitype/StillImage" />
        <dc:title></dc:title>
      </cc:Work>
    </rdf:RDF>
  </metadata>
  <defs
     id="defs1576" />
    <path
       style="fill:#000000;fill-opacity:0.890196;stroke:none;stroke-width:0;stroke-miterlimit:4;stroke-dasharray:none;stroke-opacity:0.66"
       d="M 15.0722,28.045809 C 12.64565,25.815014 9.0494946,22.264395 7.2492661,20.321935 4.5058584,17.361776 2.4337507,14.83017 1.7401712,13.591175 1.1950811,12.617438 0.7370168,11.345954 0.49645457,10.138897 0.06973933,7.9977871 0.22862934,6.2503458 0.98411149,4.77574 2.1179948,2.5625431 3.7428965,1.2873199 6.0566283,0.79482804 6.4774526,0.70525303 6.7304986,0.68524354 7.471951,0.68291205 c 2.0850319,-0.006556 3.195758,0.47344915 4.899056,2.11714975 0.91388,0.8819039 2.279132,2.4820752 3.224705,3.7795808 0.207204,0.2843227 0.39128,0.5157025 0.409057,0.5141779 0.01778,-0.00152 0.142134,-0.1383507 0.276346,-0.3040577 1.351914,-1.6691684 3.493766,-3.7747208 4.587597,-4.509849 0.873919,-0.5873321 2.310549,-1.0725875 3.505288,-1.1839932 1.19484,-0.11141514 2.224753,0.1350803 3.708736,0.8876348 1.236924,0.6272662 1.893686,1.2845555 2.816975,2.8192383 0.431406,0.7170782 0.622678,1.1533172 0.779623,1.7781031 0.490133,1.9511844 0.206107,4.6947732 -0.658947,6.3651882 -0.435554,0.841051 -2.508139,3.378601 -4.709403,5.765914 -1.359699,1.47462 -3.796319,3.975515 -5.268092,5.407057 -2.472627,2.405037 -4.95933,4.744223 -5.04341,4.744223 -0.02094,0 -0.438219,-0.367861 -0.927282,-0.81747 z m 1.81995,-2.606388 c 1.607105,-1.209472 3.303539,-2.605482 4.865195,-4.00361 0.987336,-0.883948 3.296562,-3.195414 4.013231,-4.017124 2.953071,-3.385896 4.395342,-6.171798 4.395342,-8.4900758 0,-1.6002815 -0.937614,-3.305186 -2.440211,-4.437143 C 26.882308,3.856108 25.979756,3.4786503 24.839977,3.2846229 24.021488,3.1452895 22.853278,3.1699212 22.332839,3.337486 21.692007,3.5438135 20.974487,3.9773424 20.063443,4.7086663 19.388867,5.2501691 17.79418,6.8197852 16.979479,7.7441461 16.622221,8.1494916 16.253052,8.5648195 16.159104,8.6670976 L 15.988289,8.8530578 15.501012,8.2322621 C 14.16398,6.528873 12.724679,5.0512811 11.532738,4.158417 10.205616,3.164291 7.8455172,2.5968095 6.485149,2.9447331 5.6666821,3.1540616 4.6877143,3.7756333 3.8319424,4.6293214 2.8517061,5.6071709 2.3354791,6.5497807 2.0459568,7.8904583 1.9580778,8.2973958 1.9375974,8.552619 1.9353855,9.2683808 c -0.0031,1.0027552 0.050313,1.3336552 0.3722956,2.3064802 1.1605827,3.506537 5.1971328,8.055445 11.3719149,12.815349 0.930053,0.716943 2.2696,1.691228 2.325271,1.691228 0.01881,0 0.418083,-0.288908 0.887283,-0.642017 z"
       id="path2174" />
  <path
     style="fill:none;stroke:none;stroke-width:0.1;stroke-linecap:butt;stroke-linejoin:miter;stroke-miterlimit:4;stroke-dasharray:none;stroke-opacity:1"
     d="M 16,9 C 16,9 12.594332,4.3494223 10.146413,3.4631535 8.8927173,3.0092531 7.1773355,2.6171452 5.9755979,3.1947301 4.051879,4.1193172 2,6 1.9755979,9.3172275 1.9234679,16.403799 16,26 16,26 16,26 29.941397,16.133846 30.097609,9.0488042 30.144656,6.914948 28.558174,4.8269786 26.634455,3.9023915 25.432717,3.3248065 23.448912,3.0092531 22.195217,3.4631535 19.747298,4.3494223 16,9 16,9 Z"
     id="path1591" />
  <path
     style="fill:none;stroke:none;stroke-width:0.1;stroke-linecap:butt;stroke-linejoin:miter;stroke-miterlimit:4;stroke-dasharray:none;stroke-opacity:1"
     d="M 16,29 C 16,29 7,21 2.2449946,14.536847 0.46717134,12.120373 -0.5186985,7.7039097 0.78086769,5 1.7054548,3.0762811 2.9859435,1.7064929 5,1 6.5727139,0.44832176 8.4328807,0.43262456 10,1 12.447919,1.8862688 16,7 16,7 16,7 19.505655,2.6340569 21.68326,1.7320634 23.531019,0.9666966 25.249849,0.67387131 27.097608,1.4392386 29.275213,2.3412317 30,3 31.316741,5.365545 32.451586,7.4043119 32.116118,11.707848 30.73109,13.585651 26,20 16,29 16,29 Z"
     id="path2160" />
</svg>
