<?xml version="1.0" encoding="UTF-8" standalone="no"?>
<svg
   xmlns:dc="http://purl.org/dc/elements/1.1/"
   xmlns:cc="http://creativecommons.org/ns#"
   xmlns:rdf="http://www.w3.org/1999/02/22-rdf-syntax-ns#"
   xmlns:svg="http://www.w3.org/2000/svg"
   xmlns="http://www.w3.org/2000/svg"
   xmlns:sodipodi="http://sodipodi.sourceforge.net/DTD/sodipodi-0.dtd"
   xmlns:inkscape="http://www.inkscape.org/namespaces/inkscape"
   inkscape:version="1.0 (4035a4fb49, 2020-05-01)"
   sodipodi:docname="linkedin icon.svg"
   viewBox="0 0 32 30.666668"
   height="30.666668"
   width="32"
   id="svg2176"
   version="1.1">
  <metadata
     id="metadata2182">
    <rdf:RDF>
      <cc:Work
         rdf:about="">
        <dc:format>image/svg+xml</dc:format>
        <dc:type
           rdf:resource="http://purl.org/dc/dcmitype/StillImage" />
        <dc:title></dc:title>
      </cc:Work>
    </rdf:RDF>
  </metadata>
  <defs
     id="defs2180" />
  <sodipodi:namedview
     inkscape:current-layer="layer3"
     inkscape:window-maximized="1"
     inkscape:window-y="-8"
     inkscape:window-x="-8"
     inkscape:cy="30.191027"
     inkscape:cx="-52.741136"
     inkscape:zoom="4.8997886"
     showgrid="true"
     id="namedview2178"
     inkscape:window-height="1017"
     inkscape:window-width="1920"
     inkscape:pageshadow="2"
     inkscape:pageopacity="0"
     guidetolerance="10"
     gridtolerance="10"
     objecttolerance="10"
     borderopacity="1"
     bordercolor="#666666"
     pagecolor="#ffffff">
    <inkscape:grid
       id="grid2191"
       type="xygrid" />
  </sodipodi:namedview>
  <g
     id="g2184"
     inkscape:label="Image"
     inkscape:groupmode="layer">
    <path
       id="path2760"
       d="m 1.0721712,19.99681 v -9.921569 h 3.4274511 3.4274511 v 9.921569 9.921569 H 4.4996223 1.0721712 Z"
       style="fill:#7bcbc1;fill-opacity:1;stroke-width:0.00360784;stroke-miterlimit:4;stroke-dasharray:none;stroke-opacity:0.66" />
    <path
       id="path2762"
       d="M 1.0721712,3.9960247 V 1.0556325 H 4.4996223 7.9270734 V 3.9960247 6.936417 H 4.4996223 1.0721712 Z"
       style="fill:#7bcbc1;fill-opacity:1;stroke-width:0.00360784;stroke-miterlimit:4;stroke-dasharray:none;stroke-opacity:0.66" />
  </g>
  <g
     inkscape:label="Image 1"
     id="layer3"
     inkscape:groupmode="layer">
    <path
       id="path2193"
       d="M 1,7 H 8 V 1 H 1 Z"
       style="fill:none;stroke:none;stroke-width:0.1;stroke-linecap:butt;stroke-linejoin:miter;stroke-opacity:1;stroke-miterlimit:4;stroke-dasharray:none" />
    <path
       id="path2756"
       d="M 1,10 H 8 V 30 H 1 Z"
       style="fill:none;stroke:none;stroke-width:0.1;stroke-linecap:butt;stroke-linejoin:miter;stroke-opacity:1;stroke-miterlimit:4;stroke-dasharray:none" />
    <path
       sodipodi:nodetypes="ccccccccsssccc"
       id="path2758"
       d="m 11,10 h 7 v 3 c 0,0 1.541176,-1.458824 2.567059,-2.386667 C 22.608312,10 22.019773,10 25,10 c 3,0.386667 4,1 6,3 0,6 0,17 0,17 h -7 c 0,0 0,-8 0,-12 0,-1.414214 -1.585786,-3 -3,-3 -1.414214,0 -3,1.585786 -3,3 0,4 0,12 0,12 h -7 z"
       style="fill:#7bcbc1;stroke:none;stroke-width:0.1;stroke-linecap:butt;stroke-linejoin:miter;stroke-miterlimit:4;stroke-dasharray:none;stroke-opacity:1;fill-opacity:1" />
  </g>
</svg>
