<svg xmlns="http://www.w3.org/2000/svg" xmlns:xlink="http://www.w3.org/1999/xlink">
	<symbol id="arrow" viewBox="0 0 25.333332 20" height="20" width="25.333332">
    <path id="path23"
       d="M 0,9 H 22.329412 L 14.55119,1.4957304 16,0 25.282353,9 v 2 L 16,20 14.509839,18.519061 22.376471,11 H 0 Z"
       style="fill:#ebb240;fill-opacity:1;stroke:none;stroke-width:1px;stroke-linecap:butt;stroke-linejoin:miter;stroke-opacity:1" />
	</symbol>
	<symbol id="facebook" viewBox="0 0 13.333333 29.333332">
		<path
       id="path78"
       d="M 0,9 H 2 C 2,9 2,5.6093364 2,4 2.4038457,2.168625 2.8075233,1.3651701 5.0384312,0.00862745 L 13.37647,0.0172549 13.37257,5.763137 H 9.9388451 c 0,0 -0.3090731,0.1135568 -0.4055121,0.236863 C 9.4326238,6.1287662 9.3952941,6.470588 9.3952941,6.470588 L 9.3952937,9 h 3.9772543 v 6 H 10 V 29.367842 H 2.0360783 L 2,15 H 0 Z"
       style="fill:#7bcbc1;fill-opacity:1;stroke:none;stroke-width:0.1;stroke-linecap:butt;stroke-linejoin:miter;stroke-miterlimit:2;stroke-dasharray:none;stroke-opacity:0.66" />
	</symbol>
	<symbol id="g+" viewBox="0 0 25.333332 25.333332">
    	<path
       id="path931"
       d="M 4.7918337,6.5168938 C 4.6825951,5.7565106 4.5874043,4.7106067 4.7279425,3.9133308 5.0168733,2.1637938 5.6779429,2.0459993 6.2990313,1.4207746 c 1.4546981,0.062439 2.8549065,0.3991288 4.0193837,1.933509 1.038982,1.9127143 1.29176,4.3458815 0.255565,6.0856287 C 10.264926,9.9329345 9.5577844,10.351838 8.9767017,10.382306 8.0202407,10.432456 6.8199252,9.8836696 6.1654927,9.1843479 5.4400414,8.409136 5.0936502,7.4684118 4.7918337,6.5168938"
       style="fill:none;stroke:none;stroke-width:0.1;stroke-linecap:butt;stroke-linejoin:miter;stroke-miterlimit:4;stroke-dasharray:none;stroke-opacity:1" />
    	<path
       id="path1494"
       d="M 1.3553352,5.9408861 C 1.4111729,5.2224066 1.487369,4.4838186 1.7619358,3.8175276 2.1112351,2.9698835 2.6824207,2.2154539 3.2979824,1.5360466 3.8294238,0.94948449 4.8560862,0.04659485 5.6472302,0.02258892 9.3947935,-0.09112455 16.354378,0.03388338 16.354378,0.03388338 c 0,0 0.07606,0.8844136 -0.146828,1.19721282 -0.272331,0.3821901 -0.625349,0.3536586 -1.084268,0.4517783 -0.586775,0.1254565 -1.795819,0.1242391 -1.795819,0.1242391 0,0 0.905316,1.447437 1.129446,2.2588921 0.159825,0.578642 0.179485,1.2733398 0.135534,1.7958192 -0.079,0.9390922 -0.384962,1.5456734 -0.858379,2.3605422 -0.375712,0.6466937 -0.897651,1.198258 -1.389219,1.7619358 -0.467251,0.5357931 -0.901264,0.8428071 -1.479574,1.5360461 0.03159,0.862656 0.06777,1.377925 0.06777,1.377925 0,0 1.317878,0.658211 1.87488,1.129446 0.953957,0.807068 1.815199,1.763839 2.439603,2.846204 0.295115,0.511564 0.523041,1.084503 0.587312,1.67158 0.08914,0.814206 0.01806,1.682167 -0.293656,2.439603 -0.359401,0.873299 -0.888477,1.752615 -1.581225,2.394425 -0.940609,0.871449 -2.083769,1.991645 -3.365748,1.965237 C 8.0843035,25.293067 6.4299217,25.504064 3.8175275,25.186647 3.2492561,25.117599 2.258892,24.576745 2.258892,24.576745 1.1623694,24.028484 0.40983682,23.085504 0,21.956431 -0.19496665,20.697842 -0.13708887,18.980453 0.13553352,17.845247 0.26608424,17.301631 0.49166526,17.067517 0.79061222,16.648034 1.3566445,15.853777 2.0015684,15.420968 2.8913818,15.021632 3.7977471,14.614868 4.8020437,14.457353 5.7827637,14.298787 6.2747548,14.21924 7.2736324,14.185842 7.2736324,14.185842 l -0.022589,-2.055591 c 0,0 -1.3485338,-0.0125 -2.0104139,-0.158123 C 4.4506553,11.798327 3.6163701,11.532118 3.0269153,10.978215 2.1899483,10.191727 1.7173907,9.0388782 1.423102,7.9287111 1.2532199,7.2878522 1.3039646,6.6018862 1.3553352,5.9408861 Z"
       style="fill:none;stroke:none;stroke-width:0.1;stroke-linecap:butt;stroke-linejoin:miter;stroke-miterlimit:4;stroke-dasharray:none;stroke-opacity:1" />
    	<path
       id="path1496"
       d="M 3.2265013,20.477103 C 3.0071531,19.882101 3.0199845,19.14214 3.3063653,18.576342 3.7100392,17.77881 4.6165769,17.12586 5.4147722,16.723499 6.290053,16.282281 7.2638083,16.085068 8.241954,16.148479 c 0.9698714,0.06287 1.940217,0.425761 2.731346,0.990313 0.691054,0.493138 1.205834,1.024027 1.661168,1.900761 0.32669,0.629033 0.27578,1.616047 0.07986,2.172297 -0.262659,0.745744 -1.393195,1.439688 -1.549358,1.533387 -0.559048,0.33543 -1.9129884,0.897716 -3.1626106,0.798639 C 7.1096746,23.473099 5.7058208,23.082869 4.9835071,22.553564 4.2450698,22.012444 3.5431612,21.336072 3.2265013,20.477103 Z"
       style="fill:none;stroke:none;stroke-width:0.1;stroke-linecap:butt;stroke-linejoin:miter;stroke-miterlimit:4;stroke-dasharray:none;stroke-opacity:1" />
    	<path
       id="path1500"
       d="m 16,4 v 2 h 4 v 4 h 2 V 6 h 4 V 4 H 22 V 0 h -2 v 4 z"
       style="fill:#7bcbc2;fill-opacity:0.992157;stroke:none;stroke-width:0.2;stroke-linecap:butt;stroke-linejoin:miter;stroke-miterlimit:4;stroke-dasharray:none;stroke-opacity:1" />
    	<path
       id="path1570"
       d="M 5.1421906,25.242991 C 4.4401084,25.192547 3.6595125,25.084198 3.4028437,25.001565 3.2413329,24.949568 2.8428457,24.775459 2.5173167,24.614657 1.4647922,24.094739 0.79638762,23.440344 0.30723814,22.4509 0.07124176,21.973531 0.05899934,21.930799 0.00929663,21.410941 -0.06427636,20.641416 -0.01771568,19.121223 0.10086854,18.421145 0.24626109,17.562799 0.34691125,17.3483 0.99181698,16.522404 1.8295009,15.449629 3.1096184,14.833244 5.2777241,14.458713 c 0.5348727,-0.0924 1.621472,-0.205442 1.9999227,-0.208063 0.044998,-3.16e-4 0.054682,-0.235235 0.045178,-1.095959 L 7.3107269,12.059128 6.5878815,12.02937 C 5.5261254,11.985661 4.8043001,11.843527 4.0731234,11.534192 3.03943,11.096873 2.3228537,10.253093 1.8033924,8.8615468 1.5695037,8.2349997 1.4289257,7.6786893 1.3917688,7.2326254 1.3303587,6.4954048 1.5215454,4.752956 1.7325818,4.126504 2.1378505,2.9234822 3.3916568,1.33118 4.53929,0.56205551 4.7543469,0.41792819 5.0491324,0.25235022 5.1943687,0.19410447 L 5.4584355,0.0882031 9.7729193,0.07235709 C 12.145885,0.06364179 14.582676,0.07080727 15.18801,0.0882804 l 1.100607,0.03176932 -0.01752,0.43614284 C 16.250549,1.0678307 16.153949,1.2758703 15.869557,1.4209559 15.630343,1.5429938 14.722091,1.6826003 13.897667,1.724053 l -0.686692,0.034528 0.227643,0.3840116 c 0.373907,0.6307452 0.879699,1.6908842 0.963465,2.0194224 0.09977,0.3913133 0.147274,1.1240925 0.107834,1.6634553 -0.05306,0.7255973 -0.266311,1.3473212 -0.748779,2.1830186 -0.442826,0.7670299 -1.005537,1.4498288 -2.189362,2.6565901 l -0.759766,0.774487 2.71e-4,0.377548 c 1.35e-4,0.207652 0.01335,0.545511 0.02933,0.750798 l 0.02905,0.37325 0.546692,0.299904 c 0.768592,0.421635 1.208875,0.723442 1.661514,1.138945 1.028332,0.94396 1.82719,1.953451 2.27478,2.874569 0.298573,0.614447 0.38786,0.980148 0.415575,1.702129 0.03826,0.996618 -0.08956,1.598879 -0.53046,2.49941 -0.430243,0.878769 -0.88753,1.469043 -1.725737,2.227616 -0.932271,0.8437 -1.468046,1.209787 -2.147422,1.467305 -0.256665,0.09729 -0.29606,0.09859 -3.1287309,0.103357 -1.5778361,0.0027 -2.970443,-0.0025 -3.0946821,-0.0114 z m 4.0781992,-1.713502 c 1.4404292,-0.25525 3.0183552,-1.211587 3.4701512,-2.103163 0.23593,-0.465587 0.315807,-1.33507 0.176809,-1.924612 -0.216651,-0.918896 -1.098771,-1.982852 -2.194621,-2.64701 -2.0196799,-1.224063 -4.5352101,-1.001816 -6.4857407,0.573015 -1.5369703,1.240927 -1.5843508,2.954275 -0.122557,4.431831 0.7059131,0.713526 1.3209891,1.094351 2.2523831,1.394568 1.1296326,0.364115 1.9589365,0.442765 2.9035754,0.275371 z M 9.4212907,10.365626 C 10.035365,10.175958 10.522701,9.7439685 10.813807,9.1312576 11.424048,7.8468385 11.463952,6.2446809 10.926543,4.6047845 10.5747,3.5311416 10.207142,2.959072 9.5165757,2.4103043 8.7304067,1.7855647 7.8894217,1.4762511 6.723415,1.3829825 L 6.2716366,1.3468448 5.8164491,1.7412572 C 5.1284963,2.3373573 4.9040717,2.7210357 4.7065623,3.638731 4.6238047,4.0232528 4.6055908,4.2503709 4.6055406,4.8984404 4.6054503,5.839404 4.6752672,6.4033193 4.8599763,6.9540322 5.3036968,8.2769939 5.9095276,9.1958253 6.684286,9.720865 c 0.9129922,0.618718 1.9956141,0.873753 2.7370047,0.644761 z"
       style="fill:#7bcbc2;fill-opacity:0.992157;stroke:none;stroke-width:0.009;stroke-miterlimit:4;stroke-dasharray:none;stroke-opacity:0.66" />
	</symbol>
	<symbol id="linkedin" viewBox="0 0 32 30.666668">
	    <path
	       id="path2760"
	       d="m 1.0721712,19.99681 v -9.921569 h 3.4274511 3.4274511 v 9.921569 9.921569 H 4.4996223 1.0721712 Z"
	       style="fill:#7bcbc1;fill-opacity:1;stroke-width:0.00360784;stroke-miterlimit:4;stroke-dasharray:none;stroke-opacity:0.66" />
	    <path
	       id="path2762"
	       d="M 1.0721712,3.9960247 V 1.0556325 H 4.4996223 7.9270734 V 3.9960247 6.936417 H 4.4996223 1.0721712 Z"
	       style="fill:#7bcbc1;fill-opacity:1;stroke-width:0.00360784;stroke-miterlimit:4;stroke-dasharray:none;stroke-opacity:0.66" />
	    <path
	       id="path2193"
	       d="M 1,7 H 8 V 1 H 1 Z"
	       style="fill:none;stroke:none;stroke-width:0.1;stroke-linecap:butt;stroke-linejoin:miter;stroke-opacity:1;stroke-miterlimit:4;stroke-dasharray:none" />
	    <path
	       id="path2756"
	       d="M 1,10 H 8 V 30 H 1 Z"
	       style="fill:none;stroke:none;stroke-width:0.1;stroke-linecap:butt;stroke-linejoin:miter;stroke-opacity:1;stroke-miterlimit:4;stroke-dasharray:none" />
	    <path
	       id="path2758"
	       d="m 11,10 h 7 v 3 c 0,0 1.541176,-1.458824 2.567059,-2.386667 C 22.608312,10 22.019773,10 25,10 c 3,0.386667 4,1 6,3 0,6 0,17 0,17 h -7 c 0,0 0,-8 0,-12 0,-1.414214 -1.585786,-3 -3,-3 -1.414214,0 -3,1.585786 -3,3 0,4 0,12 0,12 h -7 z"
	       style="fill:#7bcbc1;stroke:none;stroke-width:0.1;stroke-linecap:butt;stroke-linejoin:miter;stroke-miterlimit:4;stroke-dasharray:none;stroke-opacity:1;fill-opacity:1" />
	</symbol>
	<symbol id="twitter" viewBox="0 0 34.666668 28">
	    <path
	       id="path2777"
	       d="M 1.9764706,0.82352941 C 4.1857803,2.6570953 6.6041047,5.4719598 9.52,6.8188235 c 2.224755,1.0276231 7.214118,1.4164706 7.214118,1.4164706 0,0 -0.345467,-2.2536345 -0.06588,-3.3270588 C 16.969651,3.7509895 17.657087,2.6794528 18.48,1.8117647 19.221877,1.0295221 20.167835,0.39172219 21.214117,0.13176471 23.014115,-0.31545946 25.141577,-0.3043987 26.88,0.28 c 0.99319,0.33387698 2.305882,1.6964706 2.305882,1.6964706 0,0 1.707853,-0.7563445 2.536471,-1.18588236 0.314378,-0.16296681 0.922353,-0.52705883 0.922353,-0.52705883 0,0 0.410136,1.27824059 0.164706,1.84470589 -0.254988,0.5885259 -1.515294,1.1858823 -1.515294,1.1858823 l 2.421176,1.3505883 c 0,0 -2.595638,1.2843474 -3.162353,2.5035294 -0.898347,1.9326273 0.38578,4.2116217 -0.115294,6.2258827 -0.433878,1.744143 -1.073698,3.2749 -2.009412,4.809411 -0.917088,1.503966 -2.232329,3.085387 -3.524706,4.282353 -2.607166,2.414689 -5.675152,4.095803 -9.091764,5.072941 -2.744933,0.785041 -5.734229,0.589382 -8.5647062,0.197648 -2.3354573,-0.323224 -5.029604,-0.251512 -6.71999998,-1.844706 -0.47253073,-0.445359 -0.62588235,-1.844706 -0.62588235,-1.844706 0,0 2.12868663,0.330601 3.19529413,0.263529 1.4335866,-0.09015 2.9226875,-0.265374 4.2164706,-0.889412 0.66734,-0.321882 1.204501,-0.877546 1.7129412,-1.41647 0.2803232,-0.29713 0.7247058,-0.988235 0.7247058,-0.988235 0,0 -1.8556604,0.629392 -2.7670588,0.428235 -0.3479393,-0.07679 -0.7609264,-0.2606 -0.8894118,-0.592941 -0.081627,-0.211137 0.1647059,-0.658824 0.1647059,-0.658824 L 5.3035294,19.962353 5.2705882,18.776471 c 0,0 -0.6783166,-0.01564 -1.0211764,-0.362353 -0.2489889,-0.251786 -0.56,-0.889412 -0.56,-0.889412 l 2.3388235,-0.658824 c 0,0 -2.3454137,-1.569492 -3.3270588,-2.569411 C 1.9919325,13.574024 1.2527326,12.803787 0.88941176,11.858824 0.63295031,10.787326 1.2188235,9.9482349 1.2188235,9.9482349 c 0,0 1.610213,0.5619851 2.2729412,0.4941181 0.2211793,-0.02265 0.6258824,-0.230588 0.6258824,-0.230588 0,0 -2.3544428,-1.8590869 -2.8658824,-3.1952944 C 0.53347084,5.1398274 0.29466274,2.855149 1.5482353,1.2847059 1.7027811,1.0910949 1.7349324,0.76849366 1.9764706,0.82352941 Z"
	       style="fill:#7bcbc1;fill-opacity:1;stroke:none;stroke-width:0.1;stroke-linecap:butt;stroke-linejoin:miter;stroke-miterlimit:4;stroke-dasharray:none;stroke-opacity:1" />
	</symbol>
	<symbol id="heart" viewBox="0 0 32 29.333332">
	    <path
	       id="path2174"
	       d="M 15.0722,28.045809 C 12.64565,25.815014 9.0494946,22.264395 7.2492661,20.321935 4.5058584,17.361776 2.4337507,14.83017 1.7401712,13.591175 1.1950811,12.617438 0.7370168,11.345954 0.49645457,10.138897 0.06973933,7.9977871 0.22862934,6.2503458 0.98411149,4.77574 2.1179948,2.5625431 3.7428965,1.2873199 6.0566283,0.79482804 6.4774526,0.70525303 6.7304986,0.68524354 7.471951,0.68291205 c 2.0850319,-0.006556 3.195758,0.47344915 4.899056,2.11714975 0.91388,0.8819039 2.279132,2.4820752 3.224705,3.7795808 0.207204,0.2843227 0.39128,0.5157025 0.409057,0.5141779 0.01778,-0.00152 0.142134,-0.1383507 0.276346,-0.3040577 1.351914,-1.6691684 3.493766,-3.7747208 4.587597,-4.509849 0.873919,-0.5873321 2.310549,-1.0725875 3.505288,-1.1839932 1.19484,-0.11141514 2.224753,0.1350803 3.708736,0.8876348 1.236924,0.6272662 1.893686,1.2845555 2.816975,2.8192383 0.431406,0.7170782 0.622678,1.1533172 0.779623,1.7781031 0.490133,1.9511844 0.206107,4.6947732 -0.658947,6.3651882 -0.435554,0.841051 -2.508139,3.378601 -4.709403,5.765914 -1.359699,1.47462 -3.796319,3.975515 -5.268092,5.407057 -2.472627,2.405037 -4.95933,4.744223 -5.04341,4.744223 -0.02094,0 -0.438219,-0.367861 -0.927282,-0.81747 z m 1.81995,-2.606388 c 1.607105,-1.209472 3.303539,-2.605482 4.865195,-4.00361 0.987336,-0.883948 3.296562,-3.195414 4.013231,-4.017124 2.953071,-3.385896 4.395342,-6.171798 4.395342,-8.4900758 0,-1.6002815 -0.937614,-3.305186 -2.440211,-4.437143 C 26.882308,3.856108 25.979756,3.4786503 24.839977,3.2846229 24.021488,3.1452895 22.853278,3.1699212 22.332839,3.337486 21.692007,3.5438135 20.974487,3.9773424 20.063443,4.7086663 19.388867,5.2501691 17.79418,6.8197852 16.979479,7.7441461 16.622221,8.1494916 16.253052,8.5648195 16.159104,8.6670976 L 15.988289,8.8530578 15.501012,8.2322621 C 14.16398,6.528873 12.724679,5.0512811 11.532738,4.158417 10.205616,3.164291 7.8455172,2.5968095 6.485149,2.9447331 5.6666821,3.1540616 4.6877143,3.7756333 3.8319424,4.6293214 2.8517061,5.6071709 2.3354791,6.5497807 2.0459568,7.8904583 1.9580778,8.2973958 1.9375974,8.552619 1.9353855,9.2683808 c -0.0031,1.0027552 0.050313,1.3336552 0.3722956,2.3064802 1.1605827,3.506537 5.1971328,8.055445 11.3719149,12.815349 0.930053,0.716943 2.2696,1.691228 2.325271,1.691228 0.01881,0 0.418083,-0.288908 0.887283,-0.642017 z"
	       style="fill:#000000;fill-opacity:0.890196;stroke:none;stroke-width:0;stroke-miterlimit:4;stroke-dasharray:none;stroke-opacity:0.66" />
	  <path
	     id="path1591"
	     d="M 16,9 C 16,9 12.594332,4.3494223 10.146413,3.4631535 8.8927173,3.0092531 7.1773355,2.6171452 5.9755979,3.1947301 4.051879,4.1193172 2,6 1.9755979,9.3172275 1.9234679,16.403799 16,26 16,26 16,26 29.941397,16.133846 30.097609,9.0488042 30.144656,6.914948 28.558174,4.8269786 26.634455,3.9023915 25.432717,3.3248065 23.448912,3.0092531 22.195217,3.4631535 19.747298,4.3494223 16,9 16,9 Z"
	     style="fill:none;stroke:none;stroke-width:0.1;stroke-linecap:butt;stroke-linejoin:miter;stroke-miterlimit:4;stroke-dasharray:none;stroke-opacity:1" />
	  <path
	     id="path2160"
	     d="M 16,29 C 16,29 7,21 2.2449946,14.536847 0.46717134,12.120373 -0.5186985,7.7039097 0.78086769,5 1.7054548,3.0762811 2.9859435,1.7064929 5,1 6.5727139,0.44832176 8.4328807,0.43262456 10,1 12.447919,1.8862688 16,7 16,7 16,7 19.505655,2.6340569 21.68326,1.7320634 23.531019,0.9666966 25.249849,0.67387131 27.097608,1.4392386 29.275213,2.3412317 30,3 31.316741,5.365545 32.451586,7.4043119 32.116118,11.707848 30.73109,13.585651 26,20 16,29 16,29 Z"
	     style="fill:none;stroke:none;stroke-width:0.1;stroke-linecap:butt;stroke-linejoin:miter;stroke-miterlimit:4;stroke-dasharray:none;stroke-opacity:1" />
	</symbol>
	<symbol id="pin" viewBox="0 0 60 80">
	    <path
	       id="path3354"
	       d="M 30,80 C 30,80 6.4476874,53.477751 1.2235294,36.223529 0.25758225,33.033223 -0.23205401,25.736141 0.37647059,22.458824 1.2240473,17.894049 2.2586674,15.747086 5,12 8.780716,6.8321971 14.240184,2.7783021 20.282353,0.65882353 23.427781,-0.44453297 30,0 30,0"
	       style="fill:none;stroke:none;stroke-width:1px;stroke-linecap:butt;stroke-linejoin:miter;stroke-opacity:1" />
	    <path
	       style="fill:none;stroke:none;stroke-width:0.995306px;stroke-linecap:butt;stroke-linejoin:miter;stroke-opacity:1"
	       d="m 29.746498,80.002033 c 0,0 23.330554,-26.523594 28.505524,-43.778689 C 59.208874,33.032876 59.6939,25.735424 59.091105,22.457941 58.251509,17.892936 57.22663,15.745863 54.511109,11.998587 50.76599,6.8305235 45.357927,2.7764231 39.372648,0.65683715 c -3.115811,-1.1034124 -9.62615,-0.65885688 -9.62615,-0.65885688"
	       id="path3354-2" />
	    <path
	       id="path3371"
	       d="m 29,48.999897 c 0,0 7.046085,-0.694227 10,-2.376471 3.896912,-2.219277 6.922763,-5.530787 8.529412,-9.717647 1.433055,-3.734481 1.3896,-8.012886 0.470588,-11.905882 -0.684991,-2.901668 -2.08966,-5.711007 -4,-8 -2.135825,-2.559172 -4.920402,-4.724389 -8,-6 -2.177605,-0.901994 -7,-1.0000002 -7,-1.0000002"
	       style="fill:none;stroke:none;stroke-width:1px;stroke-linecap:butt;stroke-linejoin:miter;stroke-opacity:1" />
	    <path
	       style="fill:none;stroke:none;stroke-width:1px;stroke-linecap:butt;stroke-linejoin:miter;stroke-opacity:1"
	       d="M 29,49 C 29,49 21.953915,48.305773 19,46.623529 15.103088,44.404252 12.077237,41.092742 10.470588,36.905882 9.037533,33.171401 9.080988,28.892996 10,25 c 0.684991,-2.901668 2.08966,-5.711007 4,-8 2.135825,-2.559172 4.920402,-4.724389 8,-6 2.177605,-0.901994 7,-1 7,-1"
	       id="path3371-7" />
	    <path
	       id="path3388"
	       d="M 27.192237,75.732598 C 12.513674,58.155784 2.866683,42.500342 1.3117875,33.732985 0.74237106,30.522303 0.6021144,24.401336 1.0476144,22.204159 2.057549,17.223231 4.0924754,13.539737 8.2046548,9.2489416 12.365624,4.9072367 18.440176,1.3411383 22.665334,0.75972095 24.494176,0.50805693 35.233276,0.4989375 36.952581,0.74758843 40.443043,1.2523887 45.805805,4.0917094 49.399006,7.3373634 c 4.443473,4.0136846 7.418677,8.5216676 8.634223,13.0824436 0.586616,2.201009 0.60106,2.351733 0.603849,6.301999 0.0035,4.898295 -0.3278,7.387341 -1.408474,10.583019 -2.41645,7.145725 -8.121257,16.790318 -16.73219,28.287569 -3.215511,4.293327 -8.098805,10.442515 -9.921259,12.493145 l -0.731031,0.822556 z m 5.097429,-26.609235 c 4.528773,-0.774233 6.316472,-1.400004 8.693089,-3.042959 3.599097,-2.488055 6.251946,-6.099033 7.543125,-10.267475 0.488898,-1.578364 0.51264,-1.836354 0.507483,-5.514652 -0.005,-3.587731 -0.041,-3.991065 -0.511916,-5.741177 C 47.91711,22.311163 46.327644,19.01141 45.024098,17.296555 43.769381,15.645938 41.607764,13.616772 39.81647,12.408019 36.470149,10.149945 34.127913,9.5254814 29.004655,9.5254814 c -5.123259,0 -7.465495,0.6244636 -10.811815,2.8825376 -1.791295,1.208753 -3.952911,3.237919 -5.207628,4.888536 -1.333961,1.754866 -2.900881,5.023267 -3.4535729,7.203725 -0.8353156,3.295452 -0.9638331,7.50502 -0.3149352,10.315644 1.0265881,4.446541 3.8708431,8.541445 7.8373121,11.283465 2.299599,1.589711 3.668357,2.086139 8.091815,2.934775 2.833997,0.5437 4.372894,0.562916 7.143835,0.0892 z"
	       style="fill:#7bcbc1;stroke-width:0.0188235;stroke:none" />
	</symbol>
	<!-- <symbol id="heart" viewBox="0 0 32 29.333332">
	    <path
	       style="fill:#000000;fill-opacity:0.890196;stroke:none;stroke-width:0;stroke-miterlimit:4;stroke-dasharray:none;stroke-opacity:0.66"
	       d="M 15.0722,28.045809 C 12.64565,25.815014 9.0494946,22.264395 7.2492661,20.321935 4.5058584,17.361776 2.4337507,14.83017 1.7401712,13.591175 1.1950811,12.617438 0.7370168,11.345954 0.49645457,10.138897 0.06973933,7.9977871 0.22862934,6.2503458 0.98411149,4.77574 2.1179948,2.5625431 3.7428965,1.2873199 6.0566283,0.79482804 6.4774526,0.70525303 6.7304986,0.68524354 7.471951,0.68291205 c 2.0850319,-0.006556 3.195758,0.47344915 4.899056,2.11714975 0.91388,0.8819039 2.279132,2.4820752 3.224705,3.7795808 0.207204,0.2843227 0.39128,0.5157025 0.409057,0.5141779 0.01778,-0.00152 0.142134,-0.1383507 0.276346,-0.3040577 1.351914,-1.6691684 3.493766,-3.7747208 4.587597,-4.509849 0.873919,-0.5873321 2.310549,-1.0725875 3.505288,-1.1839932 1.19484,-0.11141514 2.224753,0.1350803 3.708736,0.8876348 1.236924,0.6272662 1.893686,1.2845555 2.816975,2.8192383 0.431406,0.7170782 0.622678,1.1533172 0.779623,1.7781031 0.490133,1.9511844 0.206107,4.6947732 -0.658947,6.3651882 -0.435554,0.841051 -2.508139,3.378601 -4.709403,5.765914 -1.359699,1.47462 -3.796319,3.975515 -5.268092,5.407057 -2.472627,2.405037 -4.95933,4.744223 -5.04341,4.744223 -0.02094,0 -0.438219,-0.367861 -0.927282,-0.81747 z m 1.81995,-2.606388 c 1.607105,-1.209472 3.303539,-2.605482 4.865195,-4.00361 0.987336,-0.883948 3.296562,-3.195414 4.013231,-4.017124 2.953071,-3.385896 4.395342,-6.171798 4.395342,-8.4900758 0,-1.6002815 -0.937614,-3.305186 -2.440211,-4.437143 C 26.882308,3.856108 25.979756,3.4786503 24.839977,3.2846229 24.021488,3.1452895 22.853278,3.1699212 22.332839,3.337486 21.692007,3.5438135 20.974487,3.9773424 20.063443,4.7086663 19.388867,5.2501691 17.79418,6.8197852 16.979479,7.7441461 16.622221,8.1494916 16.253052,8.5648195 16.159104,8.6670976 L 15.988289,8.8530578 15.501012,8.2322621 C 14.16398,6.528873 12.724679,5.0512811 11.532738,4.158417 10.205616,3.164291 7.8455172,2.5968095 6.485149,2.9447331 5.6666821,3.1540616 4.6877143,3.7756333 3.8319424,4.6293214 2.8517061,5.6071709 2.3354791,6.5497807 2.0459568,7.8904583 1.9580778,8.2973958 1.9375974,8.552619 1.9353855,9.2683808 c -0.0031,1.0027552 0.050313,1.3336552 0.3722956,2.3064802 1.1605827,3.506537 5.1971328,8.055445 11.3719149,12.815349 0.930053,0.716943 2.2696,1.691228 2.325271,1.691228 0.01881,0 0.418083,-0.288908 0.887283,-0.642017 z"
	       id="path2174" />
	  <path
	     style="fill:none;stroke:none;stroke-width:0.1;stroke-linecap:butt;stroke-linejoin:miter;stroke-miterlimit:4;stroke-dasharray:none;stroke-opacity:1"
	     d="M 16,9 C 16,9 12.594332,4.3494223 10.146413,3.4631535 8.8927173,3.0092531 7.1773355,2.6171452 5.9755979,3.1947301 4.051879,4.1193172 2,6 1.9755979,9.3172275 1.9234679,16.403799 16,26 16,26 16,26 29.941397,16.133846 30.097609,9.0488042 30.144656,6.914948 28.558174,4.8269786 26.634455,3.9023915 25.432717,3.3248065 23.448912,3.0092531 22.195217,3.4631535 19.747298,4.3494223 16,9 16,9 Z"
	     id="path1591" />
	  <path
	     style="fill:none;stroke:none;stroke-width:0.1;stroke-linecap:butt;stroke-linejoin:miter;stroke-miterlimit:4;stroke-dasharray:none;stroke-opacity:1"
	     d="M 16,29 C 16,29 7,21 2.2449946,14.536847 0.46717134,12.120373 -0.5186985,7.7039097 0.78086769,5 1.7054548,3.0762811 2.9859435,1.7064929 5,1 6.5727139,0.44832176 8.4328807,0.43262456 10,1 12.447919,1.8862688 16,7 16,7 16,7 19.505655,2.6340569 21.68326,1.7320634 23.531019,0.9666966 25.249849,0.67387131 27.097608,1.4392386 29.275213,2.3412317 30,3 31.316741,5.365545 32.451586,7.4043119 32.116118,11.707848 30.73109,13.585651 26,20 16,29 16,29 Z"
	     id="path2160" />
	</symbol> -->
</svg>